<svg version="1.1" id="Layer_1" xmlns="http://www.w3.org/2000/svg" xmlns:xlink="http://www.w3.org/1999/xlink" x="0px" y="0px"
	 width="100%" viewBox="0 0 500 500" enable-background="new 0 0 500 500" xml:space="preserve">
    <path fill="#000000" opacity="1.000000" stroke="none" 
        d="
    M295.000000,501.000000 
        C196.666687,501.000000 98.833382,501.000000 1.000052,501.000000 
        C1.000035,334.333405 1.000035,167.666794 1.000018,1.000142 
        C167.666565,1.000095 334.333130,1.000095 500.999756,1.000047 
        C500.999847,167.666519 500.999847,334.333038 500.999939,500.999786 
        C432.500000,501.000000 364.000000,501.000000 295.000000,501.000000 
    M415.073151,229.833801 
        C415.380157,228.736084 415.920288,227.646667 415.959686,226.539413 
        C416.699188,205.757584 414.982391,185.342804 408.226410,165.438782 
        C398.546661,136.920853 382.913086,112.493561 360.172577,92.656677 
        C343.112396,77.774826 324.206451,66.450996 302.424133,59.520813 
        C285.846283,54.246456 269.037781,51.536381 251.837662,51.149086 
        C243.338120,50.957703 234.794220,52.224842 226.286682,53.008873 
        C209.903656,54.518681 194.522705,59.976562 179.861877,66.837914 
        C161.141113,75.599342 144.502975,87.536430 130.325394,102.942780 
        C120.616867,113.492752 112.111580,124.834534 105.389481,137.329147 
        C94.336823,157.873169 87.544144,179.971680 86.159813,203.307877 
        C85.106293,221.067368 85.814117,238.872421 90.624191,256.237366 
        C94.658661,270.802307 99.761963,284.861359 107.402687,298.050110 
        C118.377609,316.993958 132.152267,333.460205 149.474930,346.720825 
        C169.343460,361.930237 191.516983,372.466217 216.164169,377.640594 
        C237.718460,382.165710 259.415039,382.624542 280.946594,378.777283 
        C305.502991,374.389557 328.090302,364.610565 348.355225,349.919220 
        C361.702423,340.242950 373.344757,328.815704 383.268402,315.546509 
        C391.836090,304.090332 398.737213,291.796417 404.075592,278.588470 
        C410.277252,263.244568 414.662201,247.464661 415.073151,229.833801 
    z"/>
    <path fill="#FF7C2C" opacity="1.000000" stroke="none" 
        d="
    M415.041077,230.302948 
        C414.662201,247.464661 410.277252,263.244568 404.075592,278.588470 
        C398.737213,291.796417 391.836090,304.090332 383.268402,315.546509 
        C373.344757,328.815704 361.702423,340.242950 348.355225,349.919220 
        C328.090302,364.610565 305.502991,374.389557 280.946594,378.777283 
        C259.415039,382.624542 237.718460,382.165710 216.164169,377.640594 
        C191.516983,372.466217 169.343460,361.930237 149.474930,346.720825 
        C132.152267,333.460205 118.377609,316.993958 107.402687,298.050110 
        C99.761963,284.861359 94.658661,270.802307 90.624191,256.237366 
        C85.814117,238.872421 85.106293,221.067368 86.159813,203.307877 
        C87.544144,179.971680 94.336823,157.873169 105.389481,137.329147 
        C112.111580,124.834534 120.616867,113.492752 130.325394,102.942780 
        C144.502975,87.536430 161.141113,75.599342 179.861877,66.837914 
        C194.522705,59.976562 209.903656,54.518681 226.286682,53.008873 
        C234.794220,52.224842 243.338120,50.957703 251.837662,51.149086 
        C269.037781,51.536381 285.846283,54.246456 302.424133,59.520813 
        C324.206451,66.450996 343.112396,77.774826 360.172577,92.656677 
        C382.913086,112.493561 398.546661,136.920853 408.226410,165.438782 
        C414.982391,185.342804 416.699188,205.757584 415.959686,226.539413 
        C415.920288,227.646667 415.380157,228.736084 415.041077,230.302948 
    M207.983688,366.533295 
        C229.039139,372.635071 250.478256,374.373108 272.119568,371.044800 
        C324.374146,363.008362 363.390839,335.542664 388.258942,289.040375 
        C403.729584,260.110931 408.758667,228.922897 404.119904,196.187592 
        C399.195526,161.436722 384.036194,131.879395 359.466644,107.219994 
        C345.989502,93.693596 330.188904,83.199600 312.486816,75.693726 
        C284.334686,63.756912 255.164749,59.568977 225.050095,65.147469 
        C172.941574,74.800140 134.743454,103.454613 111.114723,150.959793 
        C102.974983,167.324615 98.507820,184.841110 96.750206,203.142593 
        C94.512962,226.438446 97.458397,248.929596 105.363914,270.861023 
        C113.948578,294.676544 127.916702,314.853241 146.447174,332.012146 
        C164.001358,348.267029 184.313385,359.547791 207.983688,366.533295 
    z"/>
    <path fill="#FF914D" opacity="1.000000" stroke="none" 
        d="
    M207.595825,366.413757 
        C184.313385,359.547791 164.001358,348.267029 146.447174,332.012146 
        C127.916702,314.853241 113.948578,294.676544 105.363914,270.861023 
        C97.458397,248.929596 94.512962,226.438446 96.750206,203.142593 
        C98.507820,184.841110 102.974983,167.324615 111.114723,150.959793 
        C134.743454,103.454613 172.941574,74.800140 225.050095,65.147469 
        C255.164749,59.568977 284.334686,63.756912 312.486816,75.693726 
        C330.188904,83.199600 345.989502,93.693596 359.466644,107.219994 
        C384.036194,131.879395 399.195526,161.436722 404.119904,196.187592 
        C408.758667,228.922897 403.729584,260.110931 388.258942,289.040375 
        C363.390839,335.542664 324.374146,363.008362 272.119568,371.044800 
        C250.478256,374.373108 229.039139,372.635071 207.595825,366.413757 
    M211.674530,278.872040 
        C212.752090,275.575226 214.177399,272.347870 214.852188,268.970581 
        C220.231369,242.048431 225.479141,215.099976 230.742996,188.154877 
        C232.615051,178.572098 234.420258,168.976257 236.305450,159.127930 
        C228.996872,157.333237 222.681351,158.376236 215.889038,162.048889 
        C201.298218,166.067795 192.639420,175.092880 190.556564,190.517014 
        C188.625610,204.816376 185.879944,219.005737 183.172607,232.497635 
        C177.079941,216.839249 171.090149,201.139801 164.862976,185.535095 
        C159.624039,172.406784 146.776505,165.733414 132.872803,168.808868 
        C130.788239,169.269974 128.906357,170.647369 126.159111,171.816254 
        C122.399406,172.926056 118.639702,174.035858 114.488297,175.261292 
        C115.336098,177.435593 115.883774,178.973251 116.527061,180.469833 
        C125.182426,200.606277 133.845810,220.739288 142.518234,240.868393 
        C149.088074,256.117310 155.327484,271.521851 162.376785,286.546143 
        C166.902512,296.191956 174.825607,302.242218 185.979340,302.072266 
        C196.420959,301.913208 202.956619,295.431030 207.682724,286.827087 
        C209.011292,284.408417 209.921753,281.760040 211.674530,278.872040 
    M332.243011,145.193939 
        C321.672455,147.478699 314.838013,154.039963 310.571259,163.762848 
        C307.257385,171.314392 303.648254,178.736389 299.985565,185.334793 
        C298.571442,172.673660 297.157288,160.012527 295.622925,146.274933 
        C292.016785,147.641281 288.916809,148.815842 285.213379,150.408905 
        C284.759186,150.590164 284.320221,150.854279 283.848633,150.940674 
        C267.407196,153.953781 256.154388,168.542313 257.821259,185.147125 
        C260.546661,212.296616 263.465271,239.426804 266.334930,266.561707 
        C267.238129,275.102051 268.245575,283.631439 269.372223,293.650482 
        C275.885345,291.325989 281.860565,289.855438 287.199829,287.136108 
        C295.654022,282.830322 300.015656,274.931854 303.717377,265.929962 
        C307.696564,260.364502 307.031921,253.994385 307.409973,248.172058 
        C314.797150,257.608307 321.649689,267.532349 329.703491,276.360474 
        C340.373657,288.056519 363.836151,287.039459 373.110199,275.202972 
        C372.380524,273.940460 371.638031,272.655701 371.579559,271.117188 
        C373.061005,270.188690 374.542480,269.260162 376.299316,268.159088 
        C362.941528,250.565018 349.947937,233.364197 336.833710,216.255829 
        C334.429657,213.119583 331.535522,210.359039 328.752441,206.705505 
        C331.125977,201.514603 333.532166,196.338318 335.866638,191.129913 
        C341.932770,177.595810 347.967438,164.047592 354.572449,149.943008 
        C355.242340,148.329651 355.912262,146.716293 356.740112,144.722504 
        C348.350342,141.550323 340.644409,140.010422 332.243011,145.193939 
    z"/>
    <path fill="#FBF9FA" opacity="1.000000" stroke="none" 
        d="
    M370.895538,271.370941 
        C371.638031,272.655701 372.380524,273.940460 373.110199,275.202972 
        C363.836151,287.039459 340.373657,288.056519 329.703491,276.360474 
        C321.649689,267.532349 314.797150,257.608307 306.970795,247.684723 
        C304.939362,245.060898 303.347107,242.924423 301.370789,240.272614 
        C301.972412,249.544281 302.514740,257.901703 303.057007,266.259125 
        C300.015656,274.931854 295.654022,282.830322 287.199829,287.136108 
        C281.860565,289.855438 275.885345,291.325989 269.372223,293.650482 
        C268.245575,283.631439 267.238129,275.102051 266.334930,266.561707 
        C263.465271,239.426804 260.546661,212.296616 257.821259,185.147125 
        C256.154388,168.542313 267.407196,153.953781 283.848633,150.940674 
        C284.320221,150.854279 284.759186,150.590164 285.953064,150.281860 
        C288.148315,150.154816 289.603882,150.154816 291.302368,150.154816 
        C292.924042,164.914001 294.518951,179.429459 296.113831,193.944916 
        C296.434113,193.962036 296.754364,193.979172 297.074615,193.996292 
        C298.106537,191.402863 299.138458,188.809418 300.170349,186.215973 
        C303.648254,178.736389 307.257385,171.314392 310.571259,163.762848 
        C314.838013,154.039963 321.672455,147.478699 333.038391,145.137177 
        C341.058075,145.038223 347.916443,146.357605 354.014648,150.505005 
        C347.967438,164.047592 341.932770,177.595810 335.866638,191.129913 
        C333.532166,196.338318 331.125977,201.514603 328.461823,207.218018 
        C325.531799,211.104370 325.737701,213.919098 328.997864,217.069565 
        C331.947540,219.919998 334.160553,223.534714 336.685822,226.822098 
        C348.091522,241.669830 359.492737,256.520996 370.895538,271.370941 
    M268.367432,169.159592 
        C265.104279,173.890060 264.131744,179.088181 264.746918,184.779419 
        C266.960632,205.258728 269.014252,225.755264 271.192108,246.238510 
        C272.522858,258.754578 273.970093,271.258301 275.464722,284.661865 
        C278.068420,283.586243 280.119202,282.739044 282.745941,281.571503 
        C292.566986,276.290344 297.105133,267.154327 295.708252,255.835190 
        C294.781219,248.323074 294.056000,240.786041 293.162415,232.540115 
        C297.427155,232.540115 301.112274,232.540115 305.018768,233.144363 
        C314.266632,245.313950 323.294403,257.659515 332.835144,269.594971 
        C339.898560,278.431274 353.966003,280.157196 362.942535,273.266418 
        C356.143616,264.221283 349.420135,255.118179 342.526093,246.146103 
        C334.459595,235.648178 326.244446,225.264435 317.464966,214.026230 
        C326.022095,194.939850 335.225891,174.411026 344.456787,153.821732 
        C332.457031,149.959595 323.696808,153.496674 318.678436,164.119965 
        C313.632477,174.801758 308.935516,185.647858 303.980347,196.373306 
        C300.257568,204.431213 296.368256,212.412155 292.005157,221.578445 
        C289.611328,199.533737 287.357208,178.775803 285.095459,157.947250 
        C277.341827,159.749771 272.592682,163.006424 268.367432,169.159592 
    z"/>
    <path fill="#FBFAFB" opacity="1.000000" stroke="none" 
        d="
    M183.493011,233.243530 
        C185.879944,219.005737 188.625610,204.816376 190.556564,190.517014 
        C192.639420,175.092880 201.298218,166.067795 216.701782,161.949799 
        C222.573059,162.045929 227.631607,162.241135 232.478592,162.428192 
        C232.656525,163.672745 232.723083,163.835999 232.694412,163.980331 
        C225.200745,201.721924 217.695007,239.461136 210.249222,277.212158 
        C210.132034,277.806396 210.749420,278.545532 211.024002,279.217041 
        C209.921753,281.760040 209.011292,284.408417 207.682724,286.827087 
        C202.956619,295.431030 196.420959,301.913208 185.979340,302.072266 
        C174.825607,302.242218 166.902512,296.191956 162.376785,286.546143 
        C155.327484,271.521851 149.088074,256.117310 142.518234,240.868393 
        C133.845810,220.739288 125.182426,200.606277 116.527061,180.469833 
        C115.883774,178.973251 115.336098,177.435593 114.488297,175.261292 
        C118.639702,174.035858 122.399406,172.926056 126.938271,171.755463 
        C141.911301,169.805847 154.320343,176.609406 159.965851,189.662048 
        C162.860580,196.354797 165.341736,203.226456 168.007416,210.018204 
        C172.412033,221.240570 176.814697,232.463684 181.763153,245.075378 
        C182.489365,240.108261 182.991180,236.675888 183.493011,233.243530 
    M201.970749,178.985504 
        C201.970749,178.985504 202.047379,178.964294 201.406036,179.293457 
        C200.406036,181.738708 198.907822,184.101044 198.484909,186.642349 
        C195.130005,206.801712 191.979599,226.995102 188.346588,248.065155 
        C187.157562,255.307693 185.968536,262.550232 184.779495,269.792755 
        C179.640671,258.910400 175.342941,247.962784 171.054916,237.011337 
        C165.419342,222.618378 159.884308,208.185181 154.130051,193.839844 
        C149.740891,182.897736 140.752640,177.379105 129.241028,178.514313 
        C127.555611,178.806946 125.870193,179.099579 123.906952,179.440460 
        C124.439507,180.899368 124.681946,181.680313 125.003380,182.427292 
        C139.202621,215.424210 153.398575,248.422562 167.639801,281.401367 
        C168.490982,283.372498 169.526215,285.319855 170.791595,287.046906 
        C176.523956,294.870636 186.313965,296.962616 194.586090,291.888580 
        C200.429794,287.491943 202.665298,281.201202 203.996292,274.345825 
        C208.491043,251.195450 213.081497,228.063675 217.611160,204.920044 
        C219.931213,193.065979 222.199875,181.201859 224.607513,168.743317 
        C215.390106,168.446350 208.099472,170.883896 202.288818,178.191177 
        C202.031799,178.427628 201.932556,178.718033 201.970749,178.985504 
    z"/>
    <path fill="#2F42A6" opacity="1.000000" stroke="none" 
        d="
    M183.332809,232.870575 
        C182.991180,236.675888 182.489365,240.108261 181.763153,245.075378 
        C176.814697,232.463684 172.412033,221.240570 168.007416,210.018204 
        C165.341736,203.226456 162.860580,196.354797 159.965851,189.662048 
        C154.320343,176.609406 141.911301,169.805847 127.324066,171.647766 
        C128.906357,170.647369 130.788239,169.269974 132.872803,168.808868 
        C146.776505,165.733414 159.624039,172.406784 164.862976,185.535095 
        C171.090149,201.139801 177.079941,216.839249 183.332809,232.870575 
    z"/>
    <path fill="#2D41A6" opacity="1.000000" stroke="none" 
        d="
    M371.237549,271.244080 
        C359.492737,256.520996 348.091522,241.669830 336.685822,226.822098 
        C334.160553,223.534714 331.947540,219.919998 328.997864,217.069565 
        C325.737701,213.919098 325.531799,211.104370 328.519409,207.577789 
        C331.535522,210.359039 334.429657,213.119583 336.833710,216.255829 
        C349.947937,233.364197 362.941528,250.565018 376.299316,268.159088 
        C374.542480,269.260162 373.061005,270.188690 371.237549,271.244080 
    z"/>
    <path fill="#3B4AA6" opacity="1.000000" stroke="none" 
        d="
    M211.349274,279.044556 
        C210.749420,278.545532 210.132034,277.806396 210.249222,277.212158 
        C217.695007,239.461136 225.200745,201.721924 232.694412,163.980331 
        C232.723083,163.835999 232.656525,163.672745 232.478592,162.428192 
        C227.631607,162.241135 222.573059,162.045929 217.100677,161.838760 
        C222.681351,158.376236 228.996872,157.333237 236.305450,159.127930 
        C234.420258,168.976257 232.615051,178.572098 230.742996,188.154877 
        C225.479141,215.099976 220.231369,242.048431 214.852188,268.970581 
        C214.177399,272.347870 212.752090,275.575226 211.349274,279.044556 
    z"/>
    <path fill="#3446A7" opacity="1.000000" stroke="none" 
        d="
    M300.077942,185.775391 
        C299.138458,188.809418 298.106537,191.402863 297.074615,193.996292 
        C296.754364,193.979172 296.434113,193.962036 296.113831,193.944916 
        C294.518951,179.429459 292.924042,164.914001 291.302368,150.154816 
        C289.603882,150.154816 288.148315,150.154816 286.254791,150.072601 
        C288.916809,148.815842 292.016785,147.641281 295.622925,146.274933 
        C297.157288,160.012527 298.571442,172.673660 300.077942,185.775391 
    z"/>
    <path fill="#3545A5" opacity="1.000000" stroke="none" 
        d="
    M354.293549,150.223999 
        C347.916443,146.357605 341.058075,145.038223 333.396240,145.024200 
        C340.644409,140.010422 348.350342,141.550323 356.740112,144.722504 
        C355.912262,146.716293 355.242340,148.329651 354.293549,150.223999 
    z"/>
    <path fill="#3547A7" opacity="1.000000" stroke="none" 
        d="
    M303.387207,266.094543 
        C302.514740,257.901703 301.972412,249.544281 301.370789,240.272614 
        C303.347107,242.924423 304.939362,245.060898 306.702850,247.454742 
        C307.031921,253.994385 307.696564,260.364502 303.387207,266.094543 
    z"/>
    <path fill="#283EA6" opacity="1.000000" stroke="none" 
        d="
    M304.797363,232.540115 
        C301.112274,232.540115 297.427155,232.540115 293.162415,232.540115 
        C294.056000,240.786041 294.781219,248.323074 295.708252,255.835190 
        C297.105133,267.154327 292.566986,276.290344 282.044250,281.682861 
        C280.572021,279.470856 279.368011,277.196442 279.098999,274.816406 
        C276.785278,254.345749 274.481689,233.871368 272.498260,213.366837 
        C271.061249,198.510666 270.115509,183.606949 268.950684,168.724442 
        C272.592682,163.006424 277.341827,159.749771 285.095459,157.947250 
        C287.357208,178.775803 289.611328,199.533737 292.005157,221.578445 
        C296.368256,212.412155 300.257568,204.431213 303.980347,196.373306 
        C308.935516,185.647858 313.632477,174.801758 318.678436,164.119965 
        C323.696808,153.496674 332.457031,149.959595 344.456787,153.821732 
        C335.225891,174.411026 326.022095,194.939850 317.464966,214.026230 
        C326.244446,225.264435 334.459595,235.648178 342.526093,246.146103 
        C349.420135,255.118179 356.143616,264.221283 362.474976,273.633606 
        C349.942169,275.302399 340.884033,270.659485 333.909973,260.746857 
        C326.844452,250.704254 319.217133,241.052383 311.665100,231.362473 
        C310.743408,230.179840 308.768707,229.302109 307.272827,229.288391 
        C306.457642,229.280945 305.623138,231.387161 304.797363,232.540115 
    z"/>
    <path fill="#F89257" opacity="1.000000" stroke="none" 
        d="
    M268.659058,168.942017 
        C270.115509,183.606949 271.061249,198.510666 272.498260,213.366837 
        C274.481689,233.871368 276.785278,254.345749 279.098999,274.816406 
        C279.368011,277.196442 280.572021,279.470856 281.756287,281.843018 
        C280.119202,282.739044 278.068420,283.586243 275.464722,284.661865 
        C273.970093,271.258301 272.522858,258.754578 271.192108,246.238510 
        C269.014252,225.755264 266.960632,205.258728 264.746918,184.779419 
        C264.131744,179.088181 265.104279,173.890060 268.659058,168.942017 
    z"/>
    <path fill="#FA9253" opacity="1.000000" stroke="none" 
        d="
    M304.908081,232.842239 
        C305.623138,231.387161 306.457642,229.280945 307.272827,229.288391 
        C308.768707,229.302109 310.743408,230.179840 311.665100,231.362473 
        C319.217133,241.052383 326.844452,250.704254 333.909973,260.746857 
        C340.884033,270.659485 349.942169,275.302399 362.461212,273.976807 
        C353.966003,280.157196 339.898560,278.431274 332.835144,269.594971 
        C323.294403,257.659515 314.266632,245.313950 304.908081,232.842239 
    z"/>
    <path fill="#283EA6" opacity="1.000000" stroke="none" 
        d="
    M129.959335,178.631409 
        C140.752640,177.379105 149.740891,182.897736 154.130051,193.839844 
        C159.884308,208.185181 165.419342,222.618378 171.054916,237.011337 
        C175.342941,247.962784 179.640671,258.910400 184.779495,269.792755 
        C185.968536,262.550232 187.157562,255.307693 188.603912,247.915863 
        C189.378952,248.518677 189.896652,249.270798 190.783905,250.559799 
        C192.478958,240.295975 194.114349,230.806061 195.601227,221.292953 
        C197.805191,207.192032 199.903885,193.074661 202.047379,178.964294 
        C202.047379,178.964294 201.970749,178.985504 202.208344,178.933990 
        C202.676514,178.618729 202.764481,178.313828 202.709839,177.967773 
        C208.099472,170.883896 215.390106,168.446350 224.607513,168.743317 
        C222.199875,181.201859 219.931213,193.065979 217.611160,204.920044 
        C213.081497,228.063675 208.491043,251.195450 203.996292,274.345825 
        C202.665298,281.201202 200.429794,287.491943 193.863464,291.929504 
        C182.640961,290.954437 175.856613,285.141022 171.777374,275.652985 
        C157.867508,243.299789 143.902985,210.970078 129.959335,178.631409 
    z"/>
    <path fill="#FB9253" opacity="1.000000" stroke="none" 
        d="
    M129.600189,178.572861 
        C143.902985,210.970078 157.867508,243.299789 171.777374,275.652985 
        C175.856613,285.141022 182.640961,290.954437 193.533707,292.041412 
        C186.313965,296.962616 176.523956,294.870636 170.791595,287.046906 
        C169.526215,285.319855 168.490982,283.372498 167.639801,281.401367 
        C153.398575,248.422562 139.202621,215.424210 125.003380,182.427292 
        C124.681946,181.680313 124.439507,180.899368 123.906952,179.440460 
        C125.870193,179.099579 127.555611,178.806946 129.600189,178.572861 
    z"/>
    <path fill="#F49159" opacity="1.000000" stroke="none" 
        d="
    M201.726715,179.128876 
        C199.903885,193.074661 197.805191,207.192032 195.601227,221.292953 
        C194.114349,230.806061 192.478958,240.295975 190.783905,250.559799 
        C189.896652,249.270798 189.378952,248.518677 188.813812,247.472305 
        C191.979599,226.995102 195.130005,206.801712 198.484909,186.642349 
        C198.907822,184.101044 200.406036,181.738708 201.726715,179.128876 
    z"/>
    <path fill="#F49159" opacity="1.000000" stroke="none" 
        d="
    M202.499329,178.079468 
        C202.764481,178.313828 202.676514,178.618729 202.218506,178.972427 
        C201.932556,178.718033 202.031799,178.427628 202.499329,178.079468 
    z"/>
    <defs>
        <linearGradient id="gradient" x1="16" x2="16" y1="32" y2="24" gradientUnits="userSpaceOnUse">
        <stop stop-color="#000"/>
        <stop offset="1" stop-color="#000" stop-opacity="0"/>
        </linearGradient>
    </defs>
        <style>
        @media (prefers-color-scheme:dark){:root{filter:invert(100%)}}
    </style>
</svg>