<svg width="70pt" height="70pt" viewBox="-1 -1 56 46" xmlns="http://www.w3.org/2000/svg"><g id="fontsvg1668791883406" stroke-linecap="round" fill-rule="evenodd" stroke="white" stroke-width="0.75mm" fill="blue"><path d="M 44.95 4.579 L 44.5 5.429 L 44.15 5.879 A 1.08 1.08 0 0 0 44.023 6.056 Q 43.661 6.643 42.6 8.929 Q 41.55 10.929 40.45 12.879 A 240 240 0 0 0 39.824 14.05 Q 38.622 16.319 38.276 17.119 A 6.665 6.665 0 0 0 38.25 17.179 Q 40 16.229 42.3 14.429 A 222.419 222.419 0 0 1 43.821 13.267 Q 46.875 10.957 47.85 10.429 A 31.184 31.184 0 0 1 48.373 10.151 Q 49.161 9.743 49.525 9.629 A 2.129 2.129 0 0 1 49.984 9.536 Q 50.22 9.515 50.45 9.554 A 4.136 4.136 0 0 1 50.972 9.677 A 5.315 5.315 0 0 1 51.4 9.829 L 52.65 10.329 Q 53.692 10.676 53.905 12.608 A 8.972 8.972 0 0 1 53.95 13.229 Q 53.984 14.9 53.506 16.013 A 3.654 3.654 0 0 1 52.95 16.929 A 27.99 27.99 0 0 1 49.063 21.079 A 19.782 19.782 0 0 1 42.7 24.829 Q 40.95 25.479 39.1 25.929 A 5.531 5.531 0 0 1 41.49 26.821 Q 42.29 27.338 43.066 28.145 A 13.745 13.745 0 0 1 44.15 29.429 A 19.402 19.402 0 0 1 46.127 32.653 A 16.297 16.297 0 0 1 46.975 34.779 A 182.749 182.749 0 0 0 47.389 36.065 Q 47.975 37.86 48.35 38.854 Q 48.841 40.154 48.778 40.877 A 1.71 1.71 0 0 1 48.775 40.904 A 1.26 1.26 0 0 1 48.216 41.833 A 2.023 2.023 0 0 1 47.925 42.004 Q 47.15 42.379 45.3 42.729 Q 44.45 42.879 41.8 40.729 A 126.353 126.353 0 0 1 40.613 39.735 A 156.304 156.304 0 0 1 39.35 38.654 Q 38.05 37.529 36.75 36.529 A 35.416 35.416 0 0 0 35.688 35.726 Q 33.964 34.477 32.994 34.173 A 2.074 2.074 0 0 0 32.55 34.079 A 0.364 0.364 0 0 1 32.497 34.074 Q 32.403 34.06 32.226 34.003 A 5.488 5.488 0 0 1 32.15 33.979 L 31.25 36.229 A 157.458 157.458 0 0 0 30.186 38.802 A 180.34 180.34 0 0 0 29.825 39.704 A 17.341 17.341 0 0 1 28.727 41.987 A 14.777 14.777 0 0 1 28.1 42.979 Q 26.55 44.029 24.5 43.829 A 5.557 5.557 0 0 1 23.305 43.577 Q 22.579 43.331 22.087 42.881 A 2.902 2.902 0 0 1 21.4 41.929 A 1.833 1.833 0 0 1 21.33 41.586 Q 21.139 39.988 22.466 34.952 A 112.294 112.294 0 0 1 23.05 32.829 A 1223.678 1223.678 0 0 0 24.081 29.036 Q 24.488 27.532 24.855 26.156 A 699.102 699.102 0 0 0 25.55 23.529 A 509.184 509.184 0 0 1 26.056 21.615 Q 26.739 19.054 27.275 17.168 A 173.307 173.307 0 0 1 27.35 16.904 Q 28.1 14.279 28.45 12.804 Q 28.8 11.329 29.15 9.929 A 35.003 35.003 0 0 1 29.921 7.364 Q 30.485 5.729 31.15 4.429 A 5.085 5.085 0 0 1 31.517 3.697 Q 32.32 2.398 33.555 2.689 A 2.487 2.487 0 0 1 33.85 2.779 A 10.608 10.608 0 0 1 34.078 2.307 Q 34.426 1.632 34.705 1.395 A 0.886 0.886 0 0 1 34.725 1.379 A 3.627 3.627 0 0 1 35.252 1.025 A 3.162 3.162 0 0 1 35.5 0.904 A 146.274 146.274 0 0 0 35.913 0.722 A 175.189 175.189 0 0 0 36.35 0.529 A 2.783 2.783 0 0 1 36.643 0.42 Q 37.067 0.286 37.75 0.179 A 13.728 13.728 0 0 1 38.75 0.06 A 17.962 17.962 0 0 1 39.85 0.004 Q 41 -0.021 42.175 0.129 Q 43.35 0.279 44.15 0.779 A 2.88 2.88 0 0 1 44.86 1.352 Q 45.758 2.375 45.153 4.088 A 6.179 6.179 0 0 1 45 4.479 A 0.283 0.283 0 0 1 45.012 4.473 Q 45.091 4.438 44.95 4.579 Z M 0.35 38.279 L 0 5.979 A 2.647 2.647 0 0 1 0.797 4.074 A 3.64 3.64 0 0 1 0.975 3.904 Q 1.95 3.029 3.2 2.679 A 5.54 5.54 0 0 1 4.113 2.501 Q 4.861 2.422 5.55 2.579 Q 6.583 2.813 6.91 3.753 A 2.305 2.305 0 0 1 6.95 3.879 A 9.792 9.792 0 0 1 7.532 5.356 Q 8.02 6.929 8.25 9.124 A 112.009 112.009 0 0 1 8.25 9.129 A 142.688 142.688 0 0 1 8.646 13.577 Q 8.805 15.769 8.864 17.702 A 72.439 72.439 0 0 1 8.9 19.929 Q 9.371 20.682 10.063 20.682 A 1.313 1.313 0 0 0 10.15 20.679 Q 12.3 15.429 14.9 10.579 Q 17.5 5.729 18.25 4.354 Q 18.859 3.237 19.666 2.664 A 3.347 3.347 0 0 1 20.05 2.429 Q 21.1 1.879 22.3 1.729 Q 24.9 1.429 27.2 2.629 Q 28.95 3.229 29.25 4.679 A 3.172 3.172 0 0 1 29.594 6.115 Q 29.594 7.808 27.842 9.819 A 13.199 13.199 0 0 1 27.7 9.979 Q 24.55 14.979 21.35 21.029 Q 15.642 31.93 13.83 34.995 A 30.675 30.675 0 0 1 13.6 35.379 A 300.009 300.009 0 0 1 12.831 36.63 Q 11.875 38.177 11.324 39.016 A 34.173 34.173 0 0 1 11.2 39.204 A 8.586 8.586 0 0 1 10.184 40.463 A 7.305 7.305 0 0 1 9.5 41.079 A 5.242 5.242 0 0 1 6.193 42.217 Q 5.818 42.221 5.423 42.181 A 7.596 7.596 0 0 1 5.4 42.179 A 10.878 10.878 0 0 1 3.73 42 Q 1.047 41.482 0.5 39.529 Q 0.366 38.904 0.352 38.399 A 4.215 4.215 0 0 1 0.35 38.279 Z" vector-effect="non-scaling-stroke"/></g></svg>